<mxfile host="app.diagrams.net" modified="2023-04-11T01:07:04.785Z" agent="Mozilla/5.0 (Windows NT 10.0; Win64; x64) AppleWebKit/537.36 (KHTML, like Gecko) Chrome/111.0.0.0 Safari/537.36" etag="bywgf99ypFWBEojQxp6e" version="21.1.5" type="google">
  <diagram name="PÃ¡gina-1" id="hODTIQAg1oAa8f0GSd1e">
    <mxGraphModel grid="1" page="1" gridSize="10" guides="1" tooltips="1" connect="1" arrows="1" fold="1" pageScale="1" pageWidth="850" pageHeight="1100" math="0" shadow="0">
      <root>
        <mxCell id="0" />
        <mxCell id="1" parent="0" />
        <mxCell id="faHparNrTzwpCm5TF-3D-1" value="&amp;lt;&amp;lt;Abstract&amp;gt;&amp;gt;&lt;br&gt;Carga" style="swimlane;fontStyle=1;align=center;verticalAlign=top;childLayout=stackLayout;horizontal=1;startSize=60;horizontalStack=0;resizeParent=1;resizeParentMax=0;resizeLast=0;collapsible=1;marginBottom=0;whiteSpace=wrap;html=1;fontSize=16;labelBackgroundColor=none;" vertex="1" parent="1">
          <mxGeometry x="385" y="170" width="273" height="203" as="geometry" />
        </mxCell>
        <mxCell id="faHparNrTzwpCm5TF-3D-2" value="-nombre: String" style="text;strokeColor=none;fillColor=none;align=left;verticalAlign=top;spacingLeft=4;spacingRight=4;overflow=hidden;rotatable=0;points=[[0,0.5],[1,0.5]];portConstraint=eastwest;whiteSpace=wrap;html=1;fontSize=16;labelBackgroundColor=none;" vertex="1" parent="faHparNrTzwpCm5TF-3D-1">
          <mxGeometry y="60" width="273" height="26" as="geometry" />
        </mxCell>
        <mxCell id="faHparNrTzwpCm5TF-3D-3" value="-descripcion:String" style="text;strokeColor=none;fillColor=none;align=left;verticalAlign=top;spacingLeft=4;spacingRight=4;overflow=hidden;rotatable=0;points=[[0,0.5],[1,0.5]];portConstraint=eastwest;whiteSpace=wrap;html=1;fontSize=16;labelBackgroundColor=none;" vertex="1" parent="faHparNrTzwpCm5TF-3D-1">
          <mxGeometry y="86" width="273" height="26" as="geometry" />
        </mxCell>
        <mxCell id="faHparNrTzwpCm5TF-3D-4" value="" style="line;strokeWidth=1;fillColor=none;align=left;verticalAlign=middle;spacingTop=-1;spacingLeft=3;spacingRight=3;rotatable=0;labelPosition=right;points=[];portConstraint=eastwest;fontSize=16;labelBackgroundColor=none;" vertex="1" parent="faHparNrTzwpCm5TF-3D-1">
          <mxGeometry y="112" width="273" height="9" as="geometry" />
        </mxCell>
        <mxCell id="faHparNrTzwpCm5TF-3D-5" value="+cargaBarco(String String)" style="text;strokeColor=none;fillColor=none;align=left;verticalAlign=top;spacingLeft=4;spacingRight=4;overflow=hidden;rotatable=0;points=[[0,0.5],[1,0.5]];portConstraint=eastwest;whiteSpace=wrap;html=1;fontSize=16;labelBackgroundColor=none;" vertex="1" parent="faHparNrTzwpCm5TF-3D-1">
          <mxGeometry y="121" width="273" height="41" as="geometry" />
        </mxCell>
        <mxCell id="faHparNrTzwpCm5TF-3D-42" value="+abstract calcularPeso()" style="text;strokeColor=none;fillColor=none;align=left;verticalAlign=top;spacingLeft=4;spacingRight=4;overflow=hidden;rotatable=0;points=[[0,0.5],[1,0.5]];portConstraint=eastwest;whiteSpace=wrap;html=1;fontSize=16;labelBackgroundColor=none;" vertex="1" parent="faHparNrTzwpCm5TF-3D-1">
          <mxGeometry y="162" width="273" height="41" as="geometry" />
        </mxCell>
        <mxCell id="faHparNrTzwpCm5TF-3D-6" style="edgeStyle=none;curved=1;rounded=0;orthogonalLoop=1;jettySize=auto;html=1;fontSize=12;startSize=8;endSize=8;labelBackgroundColor=none;fontColor=default;entryX=0;entryY=0.5;entryDx=0;entryDy=0;" edge="1" parent="1" source="faHparNrTzwpCm5TF-3D-7">
          <mxGeometry relative="1" as="geometry">
            <mxPoint x="385" y="335" as="targetPoint" />
          </mxGeometry>
        </mxCell>
        <mxCell id="faHparNrTzwpCm5TF-3D-7" value="Barco" style="swimlane;fontStyle=1;align=center;verticalAlign=top;childLayout=stackLayout;horizontal=1;startSize=26;horizontalStack=0;resizeParent=1;resizeParentMax=0;resizeLast=0;collapsible=1;marginBottom=0;whiteSpace=wrap;html=1;fontSize=16;labelBackgroundColor=none;" vertex="1" parent="1">
          <mxGeometry x="60" y="240" width="209" height="190" as="geometry" />
        </mxCell>
        <mxCell id="faHparNrTzwpCm5TF-3D-8" value="-nombre: String" style="text;strokeColor=none;fillColor=none;align=left;verticalAlign=top;spacingLeft=4;spacingRight=4;overflow=hidden;rotatable=0;points=[[0,0.5],[1,0.5]];portConstraint=eastwest;whiteSpace=wrap;html=1;fontSize=16;labelBackgroundColor=none;" vertex="1" parent="faHparNrTzwpCm5TF-3D-7">
          <mxGeometry y="26" width="209" height="26" as="geometry" />
        </mxCell>
        <mxCell id="faHparNrTzwpCm5TF-3D-9" value="-CargaList List &amp;lt;Carga&amp;gt;" style="text;strokeColor=none;fillColor=none;align=left;verticalAlign=top;spacingLeft=4;spacingRight=4;overflow=hidden;rotatable=0;points=[[0,0.5],[1,0.5]];portConstraint=eastwest;whiteSpace=wrap;html=1;fontSize=16;labelBackgroundColor=none;" vertex="1" parent="faHparNrTzwpCm5TF-3D-7">
          <mxGeometry y="52" width="209" height="26" as="geometry" />
        </mxCell>
        <mxCell id="faHparNrTzwpCm5TF-3D-10" value="" style="line;strokeWidth=1;fillColor=none;align=left;verticalAlign=middle;spacingTop=-1;spacingLeft=3;spacingRight=3;rotatable=0;labelPosition=right;points=[];portConstraint=eastwest;fontSize=16;labelBackgroundColor=none;" vertex="1" parent="faHparNrTzwpCm5TF-3D-7">
          <mxGeometry y="78" width="209" height="8" as="geometry" />
        </mxCell>
        <mxCell id="faHparNrTzwpCm5TF-3D-11" value="+Barco(String)" style="text;strokeColor=none;fillColor=none;align=left;verticalAlign=top;spacingLeft=4;spacingRight=4;overflow=hidden;rotatable=0;points=[[0,0.5],[1,0.5]];portConstraint=eastwest;whiteSpace=wrap;html=1;fontSize=16;labelBackgroundColor=none;" vertex="1" parent="faHparNrTzwpCm5TF-3D-7">
          <mxGeometry y="86" width="209" height="26" as="geometry" />
        </mxCell>
        <mxCell id="faHparNrTzwpCm5TF-3D-12" value="+agregarCarga():void" style="text;strokeColor=none;fillColor=none;align=left;verticalAlign=top;spacingLeft=4;spacingRight=4;overflow=hidden;rotatable=0;points=[[0,0.5],[1,0.5]];portConstraint=eastwest;whiteSpace=wrap;html=1;fontSize=16;labelBackgroundColor=none;" vertex="1" parent="faHparNrTzwpCm5TF-3D-7">
          <mxGeometry y="112" width="209" height="26" as="geometry" />
        </mxCell>
        <mxCell id="faHparNrTzwpCm5TF-3D-14" value="+quitarCarga():void" style="text;strokeColor=none;fillColor=none;align=left;verticalAlign=top;spacingLeft=4;spacingRight=4;overflow=hidden;rotatable=0;points=[[0,0.5],[1,0.5]];portConstraint=eastwest;whiteSpace=wrap;html=1;fontSize=16;labelBackgroundColor=none;" vertex="1" parent="faHparNrTzwpCm5TF-3D-7">
          <mxGeometry y="138" width="209" height="26" as="geometry" />
        </mxCell>
        <mxCell id="faHparNrTzwpCm5TF-3D-13" value="+mostrarCarga():void" style="text;strokeColor=none;fillColor=none;align=left;verticalAlign=top;spacingLeft=4;spacingRight=4;overflow=hidden;rotatable=0;points=[[0,0.5],[1,0.5]];portConstraint=eastwest;whiteSpace=wrap;html=1;fontSize=16;labelBackgroundColor=none;" vertex="1" parent="faHparNrTzwpCm5TF-3D-7">
          <mxGeometry y="164" width="209" height="26" as="geometry" />
        </mxCell>
        <mxCell id="faHparNrTzwpCm5TF-3D-15" style="edgeStyle=orthogonalEdgeStyle;rounded=0;orthogonalLoop=1;jettySize=auto;html=1;endArrow=block;endFill=0;" edge="1" parent="1">
          <mxGeometry relative="1" as="geometry">
            <mxPoint x="313.57142857142867" y="511" as="sourcePoint" />
            <mxPoint x="523.0000000000002" y="371" as="targetPoint" />
            <Array as="points">
              <mxPoint x="314" y="450" />
              <mxPoint x="523" y="450" />
            </Array>
          </mxGeometry>
        </mxCell>
        <mxCell id="faHparNrTzwpCm5TF-3D-16" value="CargaSimple" style="swimlane;fontStyle=1;align=center;verticalAlign=top;childLayout=stackLayout;horizontal=1;startSize=26;horizontalStack=0;resizeParent=1;resizeParentMax=0;resizeLast=0;collapsible=1;marginBottom=0;whiteSpace=wrap;html=1;fontSize=16;labelBackgroundColor=none;" vertex="1" parent="1">
          <mxGeometry x="150" y="511" width="340" height="138" as="geometry" />
        </mxCell>
        <mxCell id="faHparNrTzwpCm5TF-3D-17" value="-pesoCarga:Double" style="text;strokeColor=none;fillColor=none;align=left;verticalAlign=top;spacingLeft=4;spacingRight=4;overflow=hidden;rotatable=0;points=[[0,0.5],[1,0.5]];portConstraint=eastwest;whiteSpace=wrap;html=1;fontSize=16;labelBackgroundColor=none;" vertex="1" parent="faHparNrTzwpCm5TF-3D-16">
          <mxGeometry y="26" width="340" height="26" as="geometry" />
        </mxCell>
        <mxCell id="faHparNrTzwpCm5TF-3D-18" value="-refrigeracion: Boolean" style="text;strokeColor=none;fillColor=none;align=left;verticalAlign=top;spacingLeft=4;spacingRight=4;overflow=hidden;rotatable=0;points=[[0,0.5],[1,0.5]];portConstraint=eastwest;whiteSpace=wrap;html=1;fontSize=16;labelBackgroundColor=none;" vertex="1" parent="faHparNrTzwpCm5TF-3D-16">
          <mxGeometry y="52" width="340" height="26" as="geometry" />
        </mxCell>
        <mxCell id="faHparNrTzwpCm5TF-3D-19" value="" style="line;strokeWidth=1;fillColor=none;align=left;verticalAlign=middle;spacingTop=-1;spacingLeft=3;spacingRight=3;rotatable=0;labelPosition=right;points=[];portConstraint=eastwest;fontSize=16;labelBackgroundColor=none;" vertex="1" parent="faHparNrTzwpCm5TF-3D-16">
          <mxGeometry y="78" width="340" height="8" as="geometry" />
        </mxCell>
        <mxCell id="faHparNrTzwpCm5TF-3D-20" value="+cargaSimple(String String Double Boolean)" style="text;strokeColor=none;fillColor=none;align=left;verticalAlign=top;spacingLeft=4;spacingRight=4;overflow=hidden;rotatable=0;points=[[0,0.5],[1,0.5]];portConstraint=eastwest;whiteSpace=wrap;html=1;fontSize=16;labelBackgroundColor=none;" vertex="1" parent="faHparNrTzwpCm5TF-3D-16">
          <mxGeometry y="86" width="340" height="26" as="geometry" />
        </mxCell>
        <mxCell id="faHparNrTzwpCm5TF-3D-43" value="+calcularPeso():Double" style="text;strokeColor=none;fillColor=none;align=left;verticalAlign=top;spacingLeft=4;spacingRight=4;overflow=hidden;rotatable=0;points=[[0,0.5],[1,0.5]];portConstraint=eastwest;whiteSpace=wrap;html=1;fontSize=16;labelBackgroundColor=none;" vertex="1" parent="faHparNrTzwpCm5TF-3D-16">
          <mxGeometry y="112" width="340" height="26" as="geometry" />
        </mxCell>
        <mxCell id="faHparNrTzwpCm5TF-3D-21" style="edgeStyle=orthogonalEdgeStyle;rounded=0;orthogonalLoop=1;jettySize=auto;html=1;endArrow=block;endFill=0;" edge="1" parent="1" source="faHparNrTzwpCm5TF-3D-22">
          <mxGeometry relative="1" as="geometry">
            <mxPoint x="522" y="370" as="targetPoint" />
            <Array as="points">
              <mxPoint x="793" y="450" />
              <mxPoint x="522" y="450" />
            </Array>
          </mxGeometry>
        </mxCell>
        <mxCell id="faHparNrTzwpCm5TF-3D-22" value="CargaContenedor" style="swimlane;fontStyle=1;align=center;verticalAlign=top;childLayout=stackLayout;horizontal=1;startSize=26;horizontalStack=0;resizeParent=1;resizeParentMax=0;resizeLast=0;collapsible=1;marginBottom=0;whiteSpace=wrap;html=1;fontSize=16;labelBackgroundColor=none;" vertex="1" parent="1">
          <mxGeometry x="570" y="507" width="313" height="138" as="geometry" />
        </mxCell>
        <mxCell id="faHparNrTzwpCm5TF-3D-23" value="-pesoContenedor: Double" style="text;strokeColor=none;fillColor=none;align=left;verticalAlign=top;spacingLeft=4;spacingRight=4;overflow=hidden;rotatable=0;points=[[0,0.5],[1,0.5]];portConstraint=eastwest;whiteSpace=wrap;html=1;fontSize=16;labelBackgroundColor=none;" vertex="1" parent="faHparNrTzwpCm5TF-3D-22">
          <mxGeometry y="26" width="313" height="26" as="geometry" />
        </mxCell>
        <mxCell id="faHparNrTzwpCm5TF-3D-24" value="-CargaList List &amp;lt;Carga&amp;gt;" style="text;strokeColor=none;fillColor=none;align=left;verticalAlign=top;spacingLeft=4;spacingRight=4;overflow=hidden;rotatable=0;points=[[0,0.5],[1,0.5]];portConstraint=eastwest;whiteSpace=wrap;html=1;fontSize=16;labelBackgroundColor=none;" vertex="1" parent="faHparNrTzwpCm5TF-3D-22">
          <mxGeometry y="52" width="313" height="26" as="geometry" />
        </mxCell>
        <mxCell id="faHparNrTzwpCm5TF-3D-25" value="" style="line;strokeWidth=1;fillColor=none;align=left;verticalAlign=middle;spacingTop=-1;spacingLeft=3;spacingRight=3;rotatable=0;labelPosition=right;points=[];portConstraint=eastwest;fontSize=16;labelBackgroundColor=none;" vertex="1" parent="faHparNrTzwpCm5TF-3D-22">
          <mxGeometry y="78" width="313" height="8" as="geometry" />
        </mxCell>
        <mxCell id="faHparNrTzwpCm5TF-3D-44" value="+cargaContenedor(String String Double )" style="text;strokeColor=none;fillColor=none;align=left;verticalAlign=top;spacingLeft=4;spacingRight=4;overflow=hidden;rotatable=0;points=[[0,0.5],[1,0.5]];portConstraint=eastwest;whiteSpace=wrap;html=1;fontSize=16;labelBackgroundColor=none;" vertex="1" parent="faHparNrTzwpCm5TF-3D-22">
          <mxGeometry y="86" width="313" height="26" as="geometry" />
        </mxCell>
        <mxCell id="faHparNrTzwpCm5TF-3D-26" value="+calcularPeso():Double" style="text;strokeColor=none;fillColor=none;align=left;verticalAlign=top;spacingLeft=4;spacingRight=4;overflow=hidden;rotatable=0;points=[[0,0.5],[1,0.5]];portConstraint=eastwest;whiteSpace=wrap;html=1;fontSize=16;labelBackgroundColor=none;" vertex="1" parent="faHparNrTzwpCm5TF-3D-22">
          <mxGeometry y="112" width="313" height="26" as="geometry" />
        </mxCell>
        <mxCell id="faHparNrTzwpCm5TF-3D-32" value="1" style="text;align=center;fontStyle=1;verticalAlign=middle;spacingLeft=3;spacingRight=3;strokeColor=none;rotatable=0;points=[[0,0.5],[1,0.5]];portConstraint=eastwest;html=1;" vertex="1" parent="1">
          <mxGeometry x="240" y="307" width="80" height="26" as="geometry" />
        </mxCell>
        <mxCell id="faHparNrTzwpCm5TF-3D-33" value="n" style="text;align=center;fontStyle=1;verticalAlign=middle;spacingLeft=3;spacingRight=3;strokeColor=none;rotatable=0;points=[[0,0.5],[1,0.5]];portConstraint=eastwest;html=1;" vertex="1" parent="1">
          <mxGeometry x="320" y="300" width="108" height="40" as="geometry" />
        </mxCell>
        <mxCell id="faHparNrTzwpCm5TF-3D-34" value="Use" style="endArrow=open;endSize=12;dashed=1;html=1;rounded=0;entryX=0.381;entryY=0.004;entryDx=0;entryDy=0;entryPerimeter=0;" edge="1" parent="1" source="faHparNrTzwpCm5TF-3D-36" target="faHparNrTzwpCm5TF-3D-1">
          <mxGeometry x="0.3485" y="-7" width="160" relative="1" as="geometry">
            <mxPoint x="630" y="30" as="sourcePoint" />
            <mxPoint x="1003.5" y="250" as="targetPoint" />
            <mxPoint as="offset" />
          </mxGeometry>
        </mxCell>
        <mxCell id="faHparNrTzwpCm5TF-3D-35" value="1" style="endArrow=open;html=1;endSize=12;startArrow=diamondThin;startSize=14;startFill=1;edgeStyle=orthogonalEdgeStyle;align=left;verticalAlign=bottom;rounded=0;" edge="1" parent="1" source="faHparNrTzwpCm5TF-3D-22" target="faHparNrTzwpCm5TF-3D-1">
          <mxGeometry x="-1" y="3" relative="1" as="geometry">
            <mxPoint x="883" y="520" as="sourcePoint" />
            <mxPoint x="1043" y="520" as="targetPoint" />
            <Array as="points">
              <mxPoint x="940" y="563" />
              <mxPoint x="940" y="290" />
            </Array>
          </mxGeometry>
        </mxCell>
        <mxCell id="faHparNrTzwpCm5TF-3D-36" value="CargaFactory" style="swimlane;fontStyle=1;align=center;verticalAlign=top;childLayout=stackLayout;horizontal=1;startSize=26;horizontalStack=0;resizeParent=1;resizeParentMax=0;resizeLast=0;collapsible=1;marginBottom=0;whiteSpace=wrap;html=1;" vertex="1" parent="1">
          <mxGeometry x="627" y="10" width="250" height="138" as="geometry" />
        </mxCell>
        <mxCell id="faHparNrTzwpCm5TF-3D-37" value="&lt;font style=&quot;font-size: 15px;&quot;&gt;&lt;b&gt;-&lt;u&gt;instance: CargaFactory&lt;/u&gt;&lt;/b&gt;&lt;/font&gt;" style="text;strokeColor=none;fillColor=none;align=left;verticalAlign=top;spacingLeft=4;spacingRight=4;overflow=hidden;rotatable=0;points=[[0,0.5],[1,0.5]];portConstraint=eastwest;whiteSpace=wrap;html=1;" vertex="1" parent="faHparNrTzwpCm5TF-3D-36">
          <mxGeometry y="26" width="250" height="26" as="geometry" />
        </mxCell>
        <mxCell id="faHparNrTzwpCm5TF-3D-38" value="" style="line;strokeWidth=1;fillColor=none;align=left;verticalAlign=middle;spacingTop=-1;spacingLeft=3;spacingRight=3;rotatable=0;labelPosition=right;points=[];portConstraint=eastwest;strokeColor=inherit;" vertex="1" parent="faHparNrTzwpCm5TF-3D-36">
          <mxGeometry y="52" width="250" height="8" as="geometry" />
        </mxCell>
        <mxCell id="faHparNrTzwpCm5TF-3D-39" value="&lt;font style=&quot;font-size: 15px;&quot;&gt;-tiposDeCargaFactory()&lt;/font&gt;" style="text;strokeColor=none;fillColor=none;align=left;verticalAlign=top;spacingLeft=4;spacingRight=4;overflow=hidden;rotatable=0;points=[[0,0.5],[1,0.5]];portConstraint=eastwest;whiteSpace=wrap;html=1;" vertex="1" parent="faHparNrTzwpCm5TF-3D-36">
          <mxGeometry y="60" width="250" height="26" as="geometry" />
        </mxCell>
        <mxCell id="faHparNrTzwpCm5TF-3D-40" value="&lt;font style=&quot;font-size: 15px;&quot;&gt;&lt;b&gt;+&lt;u&gt;getinstance():CargaFactory&lt;/u&gt;&lt;/b&gt;&lt;/font&gt;" style="text;strokeColor=none;fillColor=none;align=left;verticalAlign=top;spacingLeft=4;spacingRight=4;overflow=hidden;rotatable=0;points=[[0,0.5],[1,0.5]];portConstraint=eastwest;whiteSpace=wrap;html=1;" vertex="1" parent="faHparNrTzwpCm5TF-3D-36">
          <mxGeometry y="86" width="250" height="26" as="geometry" />
        </mxCell>
        <mxCell id="faHparNrTzwpCm5TF-3D-41" value="&lt;font style=&quot;font-size: 15px;&quot;&gt;+crearCarga(String):Carga&lt;/font&gt;" style="text;strokeColor=none;fillColor=none;align=left;verticalAlign=top;spacingLeft=4;spacingRight=4;overflow=hidden;rotatable=0;points=[[0,0.5],[1,0.5]];portConstraint=eastwest;whiteSpace=wrap;html=1;" vertex="1" parent="faHparNrTzwpCm5TF-3D-36">
          <mxGeometry y="112" width="250" height="26" as="geometry" />
        </mxCell>
      </root>
    </mxGraphModel>
  </diagram>
</mxfile>
